<?xml version="1.0" encoding="UTF-8" standalone="no"?>
<!DOCTYPE svg PUBLIC "-//W3C//DTD SVG 1.1//EN"
 "http://www.w3.org/Graphics/SVG/1.1/DTD/svg11.dtd">
<!-- Generated by graphviz version 14.1.2 (20260124.0452)
 -->
<!-- Title: basic_pipeline Pages: 1 -->
<svg width="116pt" height="213pt"
 viewBox="0.00 0.00 116.00 213.00" xmlns="http://www.w3.org/2000/svg" xmlns:xlink="http://www.w3.org/1999/xlink">
<g id="graph0" class="graph" transform="scale(1 1) rotate(0) translate(4 208.6)">
<title>basic_pipeline</title>
<polygon fill="white" stroke="none" points="-4,4 -4,-208.6 112.19,-208.6 112.19,4 -4,4"/>
<!-- Greeter -->
<g id="node1" class="node">
<title>Greeter</title>
<path fill="none" stroke="black" d="M77.47,-204.6C77.47,-204.6 30.72,-204.6 30.72,-204.6 24.72,-204.6 18.72,-198.6 18.72,-192.6 18.72,-192.6 18.72,-180.1 18.72,-180.1 18.72,-174.1 24.72,-168.1 30.72,-168.1 30.72,-168.1 77.47,-168.1 77.47,-168.1 83.47,-168.1 89.47,-174.1 89.47,-180.1 89.47,-180.1 89.47,-192.6 89.47,-192.6 89.47,-198.6 83.47,-204.6 77.47,-204.6"/>
<text xml:space="preserve" text-anchor="middle" x="54.09" y="-189.2" font-family="sans-serif" font-size="12.00">[In] Greeter</text>
<text xml:space="preserve" text-anchor="middle" x="54.09" y="-173.45" font-family="sans-serif" font-size="12.00">(Input)</text>
</g>
<!-- Formatter -->
<g id="node2" class="node">
<title>Formatter</title>
<polygon fill="none" stroke="black" points="95.09,-132.1 13.09,-132.1 13.09,-95.6 95.09,-95.6 95.09,-132.1"/>
<text xml:space="preserve" text-anchor="middle" x="54.09" y="-116.7" font-family="sans-serif" font-size="12.00">[Hidden] Formatter</text>
<text xml:space="preserve" text-anchor="middle" x="54.09" y="-100.95" font-family="sans-serif" font-size="12.00">(Hidden)</text>
</g>
<!-- Greeter&#45;&gt;Formatter -->
<g id="edge1" class="edge">
<title>Greeter&#45;&gt;Formatter</title>
<path fill="none" stroke="black" d="M54.09,-167.93C54.09,-160.69 54.09,-152.1 54.09,-143.96"/>
<polygon fill="black" stroke="black" points="57.59,-144.08 54.09,-134.08 50.59,-144.08 57.59,-144.08"/>
</g>
<!-- Printer -->
<g id="node3" class="node">
<title>Printer</title>
<polygon fill="none" stroke="black" points="108.19,-29.8 81.14,-59.6 27.05,-59.6 0,-29.8 27.05,0 81.14,0 108.19,-29.8"/>
<text xml:space="preserve" text-anchor="middle" x="54.09" y="-32.65" font-family="sans-serif" font-size="12.00">[Out] Printer</text>
<text xml:space="preserve" text-anchor="middle" x="54.09" y="-16.9" font-family="sans-serif" font-size="12.00">(Output)</text>
</g>
<!-- Formatter&#45;&gt;Printer -->
<g id="edge2" class="edge">
<title>Formatter&#45;&gt;Printer</title>
<path fill="none" stroke="black" d="M54.09,-95.45C54.09,-88.34 54.09,-79.78 54.09,-71.26"/>
<polygon fill="black" stroke="black" points="57.59,-71.32 54.09,-61.32 50.59,-71.32 57.59,-71.32"/>
</g>
</g>
</svg>
