<?xml version="1.0" encoding="UTF-8" standalone="no"?>
<!DOCTYPE svg PUBLIC "-//W3C//DTD SVG 1.1//EN"
 "http://www.w3.org/Graphics/SVG/1.1/DTD/svg11.dtd">
<!-- Generated by graphviz version 14.1.2 (20260124.0452)
 -->
<!-- Title: complex_pipeline Pages: 1 -->
<svg width="284pt" height="321pt"
 viewBox="0.00 0.00 284.00 321.00" xmlns="http://www.w3.org/2000/svg" xmlns:xlink="http://www.w3.org/1999/xlink">
<g id="graph0" class="graph" transform="scale(1 1) rotate(0) translate(4 317.46)">
<title>complex_pipeline</title>
<polygon fill="white" stroke="none" points="-4,4 -4,-317.46 279.66,-317.46 279.66,4 -4,4"/>
<!-- Ingest -->
<g id="node1" class="node">
<title>Ingest</title>
<path fill="none" stroke="black" d="M190.6,-313.46C190.6,-313.46 151.35,-313.46 151.35,-313.46 145.35,-313.46 139.35,-307.46 139.35,-301.46 139.35,-301.46 139.35,-288.96 139.35,-288.96 139.35,-282.96 145.35,-276.96 151.35,-276.96 151.35,-276.96 190.6,-276.96 190.6,-276.96 196.6,-276.96 202.6,-282.96 202.6,-288.96 202.6,-288.96 202.6,-301.46 202.6,-301.46 202.6,-307.46 196.6,-313.46 190.6,-313.46"/>
<text xml:space="preserve" text-anchor="middle" x="170.98" y="-298.06" font-family="sans-serif" font-size="12.00">[In] Ingest</text>
<text xml:space="preserve" text-anchor="middle" x="170.98" y="-282.31" font-family="sans-serif" font-size="12.00">(Input)</text>
</g>
<!-- Validate -->
<g id="node2" class="node">
<title>Validate</title>
<polygon fill="none" stroke="black" points="207.85,-239.96 134.1,-239.96 134.1,-203.46 207.85,-203.46 207.85,-239.96"/>
<text xml:space="preserve" text-anchor="middle" x="170.98" y="-224.56" font-family="sans-serif" font-size="12.00">[Hidden] Validate</text>
<text xml:space="preserve" text-anchor="middle" x="170.98" y="-208.81" font-family="sans-serif" font-size="12.00">(Hidden)</text>
</g>
<!-- Ingest&#45;&gt;Validate -->
<g id="edge1" class="edge">
<title>Ingest&#45;&gt;Validate</title>
<path fill="none" stroke="black" d="M170.98,-276.53C170.98,-269 170.98,-260.02 170.98,-251.56"/>
<polygon fill="black" stroke="black" points="174.48,-251.69 170.98,-241.69 167.48,-251.69 174.48,-251.69"/>
</g>
<!-- Enrich -->
<g id="node3" class="node">
<title>Enrich</title>
<polygon fill="none" stroke="black" points="110.73,-144.66 45.23,-144.66 45.23,-108.16 110.73,-108.16 110.73,-144.66"/>
<text xml:space="preserve" text-anchor="middle" x="77.98" y="-129.26" font-family="sans-serif" font-size="12.00">[Hidden] Enrich</text>
<text xml:space="preserve" text-anchor="middle" x="77.98" y="-113.51" font-family="sans-serif" font-size="12.00">(Hidden)</text>
</g>
<!-- Validate&#45;&gt;Enrich -->
<g id="edge2" class="edge">
<title>Validate&#45;&gt;Enrich</title>
<path fill="none" stroke="black" d="M153.48,-203.16C139.32,-188.95 119.19,-168.76 103.27,-152.79"/>
<polygon fill="black" stroke="black" points="106,-150.56 96.46,-145.95 101.04,-155.5 106,-150.56"/>
<text xml:space="preserve" text-anchor="middle" x="145.67" y="-175.96" font-family="sans-serif" font-size="10.00">valid</text>
</g>
<!-- Quarantine -->
<g id="node5" class="node">
<title>Quarantine</title>
<polygon fill="none" stroke="black" points="275.66,-126.41 238.82,-156.21 165.13,-156.21 128.29,-126.41 165.13,-96.6 238.82,-96.6 275.66,-126.41"/>
<text xml:space="preserve" text-anchor="middle" x="201.98" y="-129.26" font-family="sans-serif" font-size="12.00">[Out] Quarantine</text>
<text xml:space="preserve" text-anchor="middle" x="201.98" y="-113.51" font-family="sans-serif" font-size="12.00">(Output)</text>
</g>
<!-- Validate&#45;&gt;Quarantine -->
<g id="edge3" class="edge">
<title>Validate&#45;&gt;Quarantine</title>
<path fill="none" stroke="black" d="M176.81,-203.16C180.17,-193.03 184.55,-179.86 188.7,-167.35"/>
<polygon fill="black" stroke="black" points="191.96,-168.65 191.79,-158.05 185.32,-166.44 191.96,-168.65"/>
<text xml:space="preserve" text-anchor="middle" x="199.42" y="-175.96" font-family="sans-serif" font-size="10.00">invalid</text>
</g>
<!-- IndexOutput -->
<g id="node4" class="node">
<title>IndexOutput</title>
<polygon fill="none" stroke="black" points="155.95,-29.8 116.96,-59.6 38.99,-59.6 0,-29.8 38.99,0 116.96,0 155.95,-29.8"/>
<text xml:space="preserve" text-anchor="middle" x="77.98" y="-32.65" font-family="sans-serif" font-size="12.00">[Out] IndexOutput</text>
<text xml:space="preserve" text-anchor="middle" x="77.98" y="-16.9" font-family="sans-serif" font-size="12.00">(Output)</text>
</g>
<!-- Enrich&#45;&gt;IndexOutput -->
<g id="edge4" class="edge">
<title>Enrich&#45;&gt;IndexOutput</title>
<path fill="none" stroke="black" d="M77.98,-108.05C77.98,-97.76 77.98,-84.26 77.98,-71.42"/>
<polygon fill="black" stroke="black" points="81.48,-71.45 77.98,-61.45 74.48,-71.45 81.48,-71.45"/>
</g>
</g>
</svg>
