<?xml version="1.0" encoding="UTF-8" standalone="no"?>
<!DOCTYPE svg PUBLIC "-//W3C//DTD SVG 1.1//EN"
 "http://www.w3.org/Graphics/SVG/1.1/DTD/svg11.dtd">
<!-- Generated by graphviz version 14.1.2 (20260124.0452)
 -->
<!-- Title: conditional_branch Pages: 1 -->
<svg width="249pt" height="321pt"
 viewBox="0.00 0.00 249.00 321.00" xmlns="http://www.w3.org/2000/svg" xmlns:xlink="http://www.w3.org/1999/xlink">
<g id="graph0" class="graph" transform="scale(1 1) rotate(0) translate(4 317.46)">
<title>conditional_branch</title>
<polygon fill="white" stroke="none" points="-4,4 -4,-317.46 245.11,-317.46 245.11,4 -4,4"/>
<!-- Sensor -->
<g id="node1" class="node">
<title>Sensor</title>
<path fill="none" stroke="black" d="M118.8,-313.46C118.8,-313.46 73.55,-313.46 73.55,-313.46 67.55,-313.46 61.55,-307.46 61.55,-301.46 61.55,-301.46 61.55,-288.96 61.55,-288.96 61.55,-282.96 67.55,-276.96 73.55,-276.96 73.55,-276.96 118.8,-276.96 118.8,-276.96 124.8,-276.96 130.8,-282.96 130.8,-288.96 130.8,-288.96 130.8,-301.46 130.8,-301.46 130.8,-307.46 124.8,-313.46 118.8,-313.46"/>
<text xml:space="preserve" text-anchor="middle" x="96.18" y="-298.06" font-family="sans-serif" font-size="12.00">[In] Sensor</text>
<text xml:space="preserve" text-anchor="middle" x="96.18" y="-282.31" font-family="sans-serif" font-size="12.00">(Input)</text>
</g>
<!-- Classifier -->
<g id="node2" class="node">
<title>Classifier</title>
<polygon fill="none" stroke="black" points="136.8,-239.96 55.55,-239.96 55.55,-203.46 136.8,-203.46 136.8,-239.96"/>
<text xml:space="preserve" text-anchor="middle" x="96.18" y="-224.56" font-family="sans-serif" font-size="12.00">[Hidden] Classifier</text>
<text xml:space="preserve" text-anchor="middle" x="96.18" y="-208.81" font-family="sans-serif" font-size="12.00">(Hidden)</text>
</g>
<!-- Sensor&#45;&gt;Classifier -->
<g id="edge1" class="edge">
<title>Sensor&#45;&gt;Classifier</title>
<path fill="none" stroke="black" d="M96.18,-276.53C96.18,-269 96.18,-260.02 96.18,-251.56"/>
<polygon fill="black" stroke="black" points="99.68,-251.69 96.18,-241.69 92.68,-251.69 99.68,-251.69"/>
</g>
<!-- Celebrate -->
<g id="node3" class="node">
<title>Celebrate</title>
<polygon fill="none" stroke="black" points="136.35,-126.41 102.27,-156.21 34.09,-156.21 0,-126.41 34.09,-96.6 102.27,-96.6 136.35,-126.41"/>
<text xml:space="preserve" text-anchor="middle" x="68.18" y="-129.26" font-family="sans-serif" font-size="12.00">[Out] Celebrate</text>
<text xml:space="preserve" text-anchor="middle" x="68.18" y="-113.51" font-family="sans-serif" font-size="12.00">(Output)</text>
</g>
<!-- Classifier&#45;&gt;Celebrate -->
<g id="edge2" class="edge">
<title>Classifier&#45;&gt;Celebrate</title>
<path fill="none" stroke="black" d="M90.91,-203.16C87.87,-193.03 83.92,-179.86 80.16,-167.35"/>
<polygon fill="black" stroke="black" points="83.61,-166.64 77.38,-158.07 76.9,-168.65 83.61,-166.64"/>
<text xml:space="preserve" text-anchor="middle" x="102.38" y="-175.96" font-family="sans-serif" font-size="10.00">positive</text>
</g>
<!-- Alert -->
<g id="node4" class="node">
<title>Alert</title>
<polygon fill="none" stroke="black" points="216.43,-144.66 153.93,-144.66 153.93,-108.16 216.43,-108.16 216.43,-144.66"/>
<text xml:space="preserve" text-anchor="middle" x="185.18" y="-129.26" font-family="sans-serif" font-size="12.00">[Hidden] Alert</text>
<text xml:space="preserve" text-anchor="middle" x="185.18" y="-113.51" font-family="sans-serif" font-size="12.00">(Hidden)</text>
</g>
<!-- Classifier&#45;&gt;Alert -->
<g id="edge3" class="edge">
<title>Classifier&#45;&gt;Alert</title>
<path fill="none" stroke="black" d="M112.92,-203.16C126.47,-188.95 145.73,-168.76 160.97,-152.79"/>
<polygon fill="black" stroke="black" points="163.1,-155.62 167.47,-145.97 158.03,-150.79 163.1,-155.62"/>
<text xml:space="preserve" text-anchor="middle" x="156.38" y="-175.96" font-family="sans-serif" font-size="10.00">negative</text>
</g>
<!-- Logger -->
<g id="node5" class="node">
<title>Logger</title>
<polygon fill="none" stroke="black" points="241.11,-29.8 213.14,-59.6 157.21,-59.6 129.25,-29.8 157.21,0 213.14,0 241.11,-29.8"/>
<text xml:space="preserve" text-anchor="middle" x="185.18" y="-32.65" font-family="sans-serif" font-size="12.00">[Out] Logger</text>
<text xml:space="preserve" text-anchor="middle" x="185.18" y="-16.9" font-family="sans-serif" font-size="12.00">(Output)</text>
</g>
<!-- Alert&#45;&gt;Logger -->
<g id="edge4" class="edge">
<title>Alert&#45;&gt;Logger</title>
<path fill="none" stroke="black" d="M185.18,-108.05C185.18,-97.76 185.18,-84.26 185.18,-71.42"/>
<polygon fill="black" stroke="black" points="188.68,-71.45 185.18,-61.45 181.68,-71.45 188.68,-71.45"/>
</g>
</g>
</svg>
