<?xml version="1.0" encoding="UTF-8" standalone="no"?>
<!DOCTYPE svg PUBLIC "-//W3C//DTD SVG 1.1//EN"
 "http://www.w3.org/Graphics/SVG/1.1/DTD/svg11.dtd">
<!-- Generated by graphviz version 14.1.2 (20260124.0452)
 -->
<!-- Title: data_enrichment Pages: 1 -->
<svg width="162pt" height="358pt"
 viewBox="0.00 0.00 162.00 358.00" xmlns="http://www.w3.org/2000/svg" xmlns:xlink="http://www.w3.org/1999/xlink">
<g id="graph0" class="graph" transform="scale(1 1) rotate(0) translate(4 353.6)">
<title>data_enrichment</title>
<polygon fill="white" stroke="none" points="-4,4 -4,-353.6 157.5,-353.6 157.5,4 -4,4"/>
<!-- FetchData -->
<g id="node1" class="node">
<title>FetchData</title>
<path fill="none" stroke="black" d="M108,-349.6C108,-349.6 45.5,-349.6 45.5,-349.6 39.5,-349.6 33.5,-343.6 33.5,-337.6 33.5,-337.6 33.5,-325.1 33.5,-325.1 33.5,-319.1 39.5,-313.1 45.5,-313.1 45.5,-313.1 108,-313.1 108,-313.1 114,-313.1 120,-319.1 120,-325.1 120,-325.1 120,-337.6 120,-337.6 120,-343.6 114,-349.6 108,-349.6"/>
<text xml:space="preserve" text-anchor="middle" x="76.75" y="-334.2" font-family="sans-serif" font-size="12.00">[In] FetchData</text>
<text xml:space="preserve" text-anchor="middle" x="76.75" y="-318.45" font-family="sans-serif" font-size="12.00">(Input)</text>
</g>
<!-- ValidateProfile -->
<g id="node2" class="node">
<title>ValidateProfile</title>
<polygon fill="none" stroke="black" points="130.88,-277.1 22.63,-277.1 22.63,-240.6 130.88,-240.6 130.88,-277.1"/>
<text xml:space="preserve" text-anchor="middle" x="76.75" y="-261.7" font-family="sans-serif" font-size="12.00">[Hidden] ValidateProfile</text>
<text xml:space="preserve" text-anchor="middle" x="76.75" y="-245.95" font-family="sans-serif" font-size="12.00">(Hidden)</text>
</g>
<!-- FetchData&#45;&gt;ValidateProfile -->
<g id="edge1" class="edge">
<title>FetchData&#45;&gt;ValidateProfile</title>
<path fill="none" stroke="black" d="M76.75,-312.93C76.75,-305.69 76.75,-297.1 76.75,-288.96"/>
<polygon fill="black" stroke="black" points="80.25,-289.08 76.75,-279.08 73.25,-289.08 80.25,-289.08"/>
</g>
<!-- EnrichProfile -->
<g id="node3" class="node">
<title>EnrichProfile</title>
<polygon fill="none" stroke="black" points="126.75,-204.6 26.75,-204.6 26.75,-168.1 126.75,-168.1 126.75,-204.6"/>
<text xml:space="preserve" text-anchor="middle" x="76.75" y="-189.2" font-family="sans-serif" font-size="12.00">[Hidden] EnrichProfile</text>
<text xml:space="preserve" text-anchor="middle" x="76.75" y="-173.45" font-family="sans-serif" font-size="12.00">(Hidden)</text>
</g>
<!-- ValidateProfile&#45;&gt;EnrichProfile -->
<g id="edge2" class="edge">
<title>ValidateProfile&#45;&gt;EnrichProfile</title>
<path fill="none" stroke="black" d="M76.75,-240.43C76.75,-233.19 76.75,-224.6 76.75,-216.46"/>
<polygon fill="black" stroke="black" points="80.25,-216.58 76.75,-206.58 73.25,-216.58 80.25,-216.58"/>
</g>
<!-- TransformProfile -->
<g id="node4" class="node">
<title>TransformProfile</title>
<polygon fill="none" stroke="black" points="136.13,-132.1 17.38,-132.1 17.38,-95.6 136.13,-95.6 136.13,-132.1"/>
<text xml:space="preserve" text-anchor="middle" x="76.75" y="-116.7" font-family="sans-serif" font-size="12.00">[Hidden] TransformProfile</text>
<text xml:space="preserve" text-anchor="middle" x="76.75" y="-100.95" font-family="sans-serif" font-size="12.00">(Hidden)</text>
</g>
<!-- EnrichProfile&#45;&gt;TransformProfile -->
<g id="edge3" class="edge">
<title>EnrichProfile&#45;&gt;TransformProfile</title>
<path fill="none" stroke="black" d="M76.75,-167.93C76.75,-160.69 76.75,-152.1 76.75,-143.96"/>
<polygon fill="black" stroke="black" points="80.25,-144.08 76.75,-134.08 73.25,-144.08 80.25,-144.08"/>
</g>
<!-- StoreProfile -->
<g id="node5" class="node">
<title>StoreProfile</title>
<polygon fill="none" stroke="black" points="153.5,-29.8 115.13,-59.6 38.38,-59.6 0,-29.8 38.38,0 115.13,0 153.5,-29.8"/>
<text xml:space="preserve" text-anchor="middle" x="76.75" y="-32.65" font-family="sans-serif" font-size="12.00">[Out] StoreProfile</text>
<text xml:space="preserve" text-anchor="middle" x="76.75" y="-16.9" font-family="sans-serif" font-size="12.00">(Output)</text>
</g>
<!-- TransformProfile&#45;&gt;StoreProfile -->
<g id="edge4" class="edge">
<title>TransformProfile&#45;&gt;StoreProfile</title>
<path fill="none" stroke="black" d="M76.75,-95.45C76.75,-88.34 76.75,-79.78 76.75,-71.26"/>
<polygon fill="black" stroke="black" points="80.25,-71.32 76.75,-61.32 73.25,-71.32 80.25,-71.32"/>
</g>
</g>
</svg>
