<?xml version="1.0" encoding="UTF-8" standalone="no"?>
<!DOCTYPE svg PUBLIC "-//W3C//DTD SVG 1.1//EN"
 "http://www.w3.org/Graphics/SVG/1.1/DTD/svg11.dtd">
<!-- Generated by graphviz version 14.1.2 (20260124.0452)
 -->
<!-- Title: diamond Pages: 1 -->
<svg width="194pt" height="285pt"
 viewBox="0.00 0.00 194.00 285.00" xmlns="http://www.w3.org/2000/svg" xmlns:xlink="http://www.w3.org/1999/xlink">
<g id="graph0" class="graph" transform="scale(1 1) rotate(0) translate(4 281.1)">
<title>diamond</title>
<polygon fill="white" stroke="none" points="-4,4 -4,-281.1 190.25,-281.1 190.25,4 -4,4"/>
<!-- TextInput -->
<g id="node1" class="node">
<title>TextInput</title>
<path fill="none" stroke="black" d="M124.75,-277.1C124.75,-277.1 69.75,-277.1 69.75,-277.1 63.75,-277.1 57.75,-271.1 57.75,-265.1 57.75,-265.1 57.75,-252.6 57.75,-252.6 57.75,-246.6 63.75,-240.6 69.75,-240.6 69.75,-240.6 124.75,-240.6 124.75,-240.6 130.75,-240.6 136.75,-246.6 136.75,-252.6 136.75,-252.6 136.75,-265.1 136.75,-265.1 136.75,-271.1 130.75,-277.1 124.75,-277.1"/>
<text xml:space="preserve" text-anchor="middle" x="97.25" y="-261.7" font-family="sans-serif" font-size="12.00">[In] TextInput</text>
<text xml:space="preserve" text-anchor="middle" x="97.25" y="-245.95" font-family="sans-serif" font-size="12.00">(Input)</text>
</g>
<!-- UpperCase -->
<g id="node2" class="node">
<title>UpperCase</title>
<polygon fill="none" stroke="black" points="92.5,-204.6 0,-204.6 0,-168.1 92.5,-168.1 92.5,-204.6"/>
<text xml:space="preserve" text-anchor="middle" x="46.25" y="-189.2" font-family="sans-serif" font-size="12.00">[Hidden] UpperCase</text>
<text xml:space="preserve" text-anchor="middle" x="46.25" y="-173.45" font-family="sans-serif" font-size="12.00">(Hidden)</text>
</g>
<!-- TextInput&#45;&gt;UpperCase -->
<g id="edge1" class="edge">
<title>TextInput&#45;&gt;UpperCase</title>
<path fill="none" stroke="black" d="M84.64,-240.43C78.92,-232.52 72.03,-222.99 65.67,-214.2"/>
<polygon fill="black" stroke="black" points="68.65,-212.35 59.95,-206.3 62.98,-216.45 68.65,-212.35"/>
</g>
<!-- Reverse -->
<g id="node3" class="node">
<title>Reverse</title>
<polygon fill="none" stroke="black" points="186.25,-204.6 110.25,-204.6 110.25,-168.1 186.25,-168.1 186.25,-204.6"/>
<text xml:space="preserve" text-anchor="middle" x="148.25" y="-189.2" font-family="sans-serif" font-size="12.00">[Hidden] Reverse</text>
<text xml:space="preserve" text-anchor="middle" x="148.25" y="-173.45" font-family="sans-serif" font-size="12.00">(Hidden)</text>
</g>
<!-- TextInput&#45;&gt;Reverse -->
<g id="edge2" class="edge">
<title>TextInput&#45;&gt;Reverse</title>
<path fill="none" stroke="black" d="M109.86,-240.43C115.58,-232.52 122.47,-222.99 128.83,-214.2"/>
<polygon fill="black" stroke="black" points="131.52,-216.45 134.55,-206.3 125.85,-212.35 131.52,-216.45"/>
</g>
<!-- Merger -->
<g id="node4" class="node">
<title>Merger</title>
<polygon fill="none" stroke="black" points="131.5,-132.1 63,-132.1 63,-95.6 131.5,-95.6 131.5,-132.1"/>
<text xml:space="preserve" text-anchor="middle" x="97.25" y="-116.7" font-family="sans-serif" font-size="12.00">[Hidden] Merger</text>
<text xml:space="preserve" text-anchor="middle" x="97.25" y="-100.95" font-family="sans-serif" font-size="12.00">(Hidden)</text>
</g>
<!-- UpperCase&#45;&gt;Merger -->
<g id="edge3" class="edge">
<title>UpperCase&#45;&gt;Merger</title>
<path fill="none" stroke="black" d="M58.86,-167.93C64.58,-160.02 71.47,-150.49 77.83,-141.7"/>
<polygon fill="black" stroke="black" points="80.52,-143.95 83.55,-133.8 74.85,-139.85 80.52,-143.95"/>
</g>
<!-- Reverse&#45;&gt;Merger -->
<g id="edge4" class="edge">
<title>Reverse&#45;&gt;Merger</title>
<path fill="none" stroke="black" d="M135.64,-167.93C129.92,-160.02 123.03,-150.49 116.67,-141.7"/>
<polygon fill="black" stroke="black" points="119.65,-139.85 110.95,-133.8 113.98,-143.95 119.65,-139.85"/>
</g>
<!-- Display -->
<g id="node5" class="node">
<title>Display</title>
<polygon fill="none" stroke="black" points="155.63,-29.8 126.44,-59.6 68.06,-59.6 38.87,-29.8 68.06,0 126.44,0 155.63,-29.8"/>
<text xml:space="preserve" text-anchor="middle" x="97.25" y="-32.65" font-family="sans-serif" font-size="12.00">[Out] Display</text>
<text xml:space="preserve" text-anchor="middle" x="97.25" y="-16.9" font-family="sans-serif" font-size="12.00">(Output)</text>
</g>
<!-- Merger&#45;&gt;Display -->
<g id="edge5" class="edge">
<title>Merger&#45;&gt;Display</title>
<path fill="none" stroke="black" d="M97.25,-95.45C97.25,-88.34 97.25,-79.78 97.25,-71.26"/>
<polygon fill="black" stroke="black" points="100.75,-71.32 97.25,-61.32 93.75,-71.32 100.75,-71.32"/>
</g>
</g>
</svg>
