<?xml version="1.0" encoding="UTF-8" standalone="no"?>
<!DOCTYPE svg PUBLIC "-//W3C//DTD SVG 1.1//EN"
 "http://www.w3.org/Graphics/SVG/1.1/DTD/svg11.dtd">
<!-- Generated by graphviz version 14.1.2 (20260124.0452)
 -->
<!-- Title: fan_out Pages: 1 -->
<svg width="537pt" height="140pt"
 viewBox="0.00 0.00 537.00 140.00" xmlns="http://www.w3.org/2000/svg" xmlns:xlink="http://www.w3.org/1999/xlink">
<g id="graph0" class="graph" transform="scale(1 1) rotate(0) translate(4 136.1)">
<title>fan_out</title>
<polygon fill="white" stroke="none" points="-4,4 -4,-136.1 533.16,-136.1 533.16,4 -4,4"/>
<!-- EventSource -->
<g id="node1" class="node">
<title>EventSource</title>
<path fill="none" stroke="black" d="M307.84,-132.1C307.84,-132.1 231.84,-132.1 231.84,-132.1 225.84,-132.1 219.84,-126.1 219.84,-120.1 219.84,-120.1 219.84,-107.6 219.84,-107.6 219.84,-101.6 225.84,-95.6 231.84,-95.6 231.84,-95.6 307.84,-95.6 307.84,-95.6 313.84,-95.6 319.84,-101.6 319.84,-107.6 319.84,-107.6 319.84,-120.1 319.84,-120.1 319.84,-126.1 313.84,-132.1 307.84,-132.1"/>
<text xml:space="preserve" text-anchor="middle" x="269.84" y="-116.7" font-family="sans-serif" font-size="12.00">[In] EventSource</text>
<text xml:space="preserve" text-anchor="middle" x="269.84" y="-100.95" font-family="sans-serif" font-size="12.00">(Input)</text>
</g>
<!-- ConsoleOutput -->
<g id="node2" class="node">
<title>ConsoleOutput</title>
<polygon fill="none" stroke="black" points="181.67,-29.8 136.25,-59.6 45.42,-59.6 0,-29.8 45.42,0 136.25,0 181.67,-29.8"/>
<text xml:space="preserve" text-anchor="middle" x="90.84" y="-32.65" font-family="sans-serif" font-size="12.00">[Out] ConsoleOutput</text>
<text xml:space="preserve" text-anchor="middle" x="90.84" y="-16.9" font-family="sans-serif" font-size="12.00">(Output)</text>
</g>
<!-- EventSource&#45;&gt;ConsoleOutput -->
<g id="edge1" class="edge">
<title>EventSource&#45;&gt;ConsoleOutput</title>
<path fill="none" stroke="black" d="M231.44,-95.25C208.95,-84.95 180,-71.68 154.22,-59.86"/>
<polygon fill="black" stroke="black" points="155.7,-56.68 145.15,-55.7 152.78,-63.05 155.7,-56.68"/>
</g>
<!-- FileOutput -->
<g id="node3" class="node">
<title>FileOutput</title>
<polygon fill="none" stroke="black" points="340.46,-29.8 305.15,-59.6 234.52,-59.6 199.21,-29.8 234.52,0 305.15,0 340.46,-29.8"/>
<text xml:space="preserve" text-anchor="middle" x="269.84" y="-32.65" font-family="sans-serif" font-size="12.00">[Out] FileOutput</text>
<text xml:space="preserve" text-anchor="middle" x="269.84" y="-16.9" font-family="sans-serif" font-size="12.00">(Output)</text>
</g>
<!-- EventSource&#45;&gt;FileOutput -->
<g id="edge2" class="edge">
<title>EventSource&#45;&gt;FileOutput</title>
<path fill="none" stroke="black" d="M269.84,-95.45C269.84,-88.34 269.84,-79.78 269.84,-71.26"/>
<polygon fill="black" stroke="black" points="273.34,-71.32 269.84,-61.32 266.34,-71.32 273.34,-71.32"/>
</g>
<!-- MetricsOutput -->
<g id="node4" class="node">
<title>MetricsOutput</title>
<polygon fill="none" stroke="black" points="529.16,-29.8 486.5,-59.6 401.17,-59.6 358.51,-29.8 401.17,0 486.5,0 529.16,-29.8"/>
<text xml:space="preserve" text-anchor="middle" x="443.84" y="-32.65" font-family="sans-serif" font-size="12.00">[Out] MetricsOutput</text>
<text xml:space="preserve" text-anchor="middle" x="443.84" y="-16.9" font-family="sans-serif" font-size="12.00">(Output)</text>
</g>
<!-- EventSource&#45;&gt;MetricsOutput -->
<g id="edge3" class="edge">
<title>EventSource&#45;&gt;MetricsOutput</title>
<path fill="none" stroke="black" d="M307.16,-95.25C329.28,-84.82 357.84,-71.36 383.12,-59.43"/>
<polygon fill="black" stroke="black" points="384.44,-62.68 392,-55.25 381.46,-56.35 384.44,-62.68"/>
</g>
</g>
</svg>
