<?xml version="1.0" encoding="UTF-8" standalone="no"?>
<!DOCTYPE svg PUBLIC "-//W3C//DTD SVG 1.1//EN"
 "http://www.w3.org/Graphics/SVG/1.1/DTD/svg11.dtd">
<!-- Generated by graphviz version 14.1.2 (20260124.0452)
 -->
<!-- Title: fan_in Pages: 1 -->
<svg width="198pt" height="213pt"
 viewBox="0.00 0.00 198.00 213.00" xmlns="http://www.w3.org/2000/svg" xmlns:xlink="http://www.w3.org/1999/xlink">
<g id="graph0" class="graph" transform="scale(1 1) rotate(0) translate(4 208.6)">
<title>fan_in</title>
<polygon fill="white" stroke="none" points="-4,4 -4,-208.6 193.75,-208.6 193.75,4 -4,4"/>
<!-- ApiSource -->
<g id="node1" class="node">
<title>ApiSource</title>
<path fill="none" stroke="black" d="M74.5,-204.6C74.5,-204.6 12,-204.6 12,-204.6 6,-204.6 0,-198.6 0,-192.6 0,-192.6 0,-180.1 0,-180.1 0,-174.1 6,-168.1 12,-168.1 12,-168.1 74.5,-168.1 74.5,-168.1 80.5,-168.1 86.5,-174.1 86.5,-180.1 86.5,-180.1 86.5,-192.6 86.5,-192.6 86.5,-198.6 80.5,-204.6 74.5,-204.6"/>
<text xml:space="preserve" text-anchor="middle" x="43.25" y="-189.2" font-family="sans-serif" font-size="12.00">[In] ApiSource</text>
<text xml:space="preserve" text-anchor="middle" x="43.25" y="-173.45" font-family="sans-serif" font-size="12.00">(Input)</text>
</g>
<!-- Aggregator -->
<g id="node3" class="node">
<title>Aggregator</title>
<polygon fill="none" stroke="black" points="140,-132.1 50.5,-132.1 50.5,-95.6 140,-95.6 140,-132.1"/>
<text xml:space="preserve" text-anchor="middle" x="95.25" y="-116.7" font-family="sans-serif" font-size="12.00">[Hidden] Aggregator</text>
<text xml:space="preserve" text-anchor="middle" x="95.25" y="-100.95" font-family="sans-serif" font-size="12.00">(Hidden)</text>
</g>
<!-- ApiSource&#45;&gt;Aggregator -->
<g id="edge1" class="edge">
<title>ApiSource&#45;&gt;Aggregator</title>
<path fill="none" stroke="black" d="M56.1,-167.93C61.93,-160.02 68.96,-150.49 75.45,-141.7"/>
<polygon fill="black" stroke="black" points="78.17,-143.91 81.28,-133.79 72.53,-139.76 78.17,-143.91"/>
</g>
<!-- DbSource -->
<g id="node2" class="node">
<title>DbSource</title>
<path fill="none" stroke="black" d="M177.75,-204.6C177.75,-204.6 116.75,-204.6 116.75,-204.6 110.75,-204.6 104.75,-198.6 104.75,-192.6 104.75,-192.6 104.75,-180.1 104.75,-180.1 104.75,-174.1 110.75,-168.1 116.75,-168.1 116.75,-168.1 177.75,-168.1 177.75,-168.1 183.75,-168.1 189.75,-174.1 189.75,-180.1 189.75,-180.1 189.75,-192.6 189.75,-192.6 189.75,-198.6 183.75,-204.6 177.75,-204.6"/>
<text xml:space="preserve" text-anchor="middle" x="147.25" y="-189.2" font-family="sans-serif" font-size="12.00">[In] DbSource</text>
<text xml:space="preserve" text-anchor="middle" x="147.25" y="-173.45" font-family="sans-serif" font-size="12.00">(Input)</text>
</g>
<!-- DbSource&#45;&gt;Aggregator -->
<g id="edge2" class="edge">
<title>DbSource&#45;&gt;Aggregator</title>
<path fill="none" stroke="black" d="M134.4,-167.93C128.57,-160.02 121.54,-150.49 115.05,-141.7"/>
<polygon fill="black" stroke="black" points="117.97,-139.76 109.22,-133.79 112.33,-143.91 117.97,-139.76"/>
</g>
<!-- Dashboard -->
<g id="node4" class="node">
<title>Dashboard</title>
<polygon fill="none" stroke="black" points="168.94,-29.8 132.09,-59.6 58.41,-59.6 21.56,-29.8 58.41,0 132.09,0 168.94,-29.8"/>
<text xml:space="preserve" text-anchor="middle" x="95.25" y="-32.65" font-family="sans-serif" font-size="12.00">[Out] Dashboard</text>
<text xml:space="preserve" text-anchor="middle" x="95.25" y="-16.9" font-family="sans-serif" font-size="12.00">(Output)</text>
</g>
<!-- Aggregator&#45;&gt;Dashboard -->
<g id="edge3" class="edge">
<title>Aggregator&#45;&gt;Dashboard</title>
<path fill="none" stroke="black" d="M95.25,-95.45C95.25,-88.34 95.25,-79.78 95.25,-71.26"/>
<polygon fill="black" stroke="black" points="98.75,-71.32 95.25,-61.32 91.75,-71.32 98.75,-71.32"/>
</g>
</g>
</svg>
