<?xml version="1.0" encoding="UTF-8" standalone="no"?>
<!DOCTYPE svg PUBLIC "-//W3C//DTD SVG 1.1//EN"
 "http://www.w3.org/Graphics/SVG/1.1/DTD/svg11.dtd">
<!-- Generated by graphviz version 14.1.2 (20260124.0452)
 -->
<!-- Title: loop_with_exit Pages: 1 -->
<svg width="175pt" height="236pt"
 viewBox="0.00 0.00 175.00 236.00" xmlns="http://www.w3.org/2000/svg" xmlns:xlink="http://www.w3.org/1999/xlink">
<g id="graph0" class="graph" transform="scale(1 1) rotate(0) translate(4 232.1)">
<title>loop_with_exit</title>
<polygon fill="white" stroke="none" points="-4,4 -4,-232.1 170.76,-232.1 170.76,4 -4,4"/>
<!-- Seed -->
<g id="node1" class="node">
<title>Seed</title>
<path fill="none" stroke="black" d="M100.01,-228.1C100.01,-228.1 64.51,-228.1 64.51,-228.1 58.51,-228.1 52.51,-222.1 52.51,-216.1 52.51,-216.1 52.51,-203.6 52.51,-203.6 52.51,-197.6 58.51,-191.6 64.51,-191.6 64.51,-191.6 100.01,-191.6 100.01,-191.6 106.01,-191.6 112.01,-197.6 112.01,-203.6 112.01,-203.6 112.01,-216.1 112.01,-216.1 112.01,-222.1 106.01,-228.1 100.01,-228.1"/>
<text xml:space="preserve" text-anchor="middle" x="82.26" y="-212.7" font-family="sans-serif" font-size="12.00">[In] Seed</text>
<text xml:space="preserve" text-anchor="middle" x="82.26" y="-196.95" font-family="sans-serif" font-size="12.00">(Input)</text>
</g>
<!-- Accumulator -->
<g id="node2" class="node">
<title>Accumulator</title>
<polygon fill="none" stroke="black" points="130.76,-154.6 33.76,-154.6 33.76,-118.1 130.76,-118.1 130.76,-154.6"/>
<text xml:space="preserve" text-anchor="middle" x="82.26" y="-139.2" font-family="sans-serif" font-size="12.00">[Hidden] Accumulator</text>
<text xml:space="preserve" text-anchor="middle" x="82.26" y="-123.45" font-family="sans-serif" font-size="12.00">(Hidden)</text>
</g>
<!-- Seed&#45;&gt;Accumulator -->
<g id="edge1" class="edge">
<title>Seed&#45;&gt;Accumulator</title>
<path fill="none" stroke="black" d="M82.26,-191.18C82.26,-183.65 82.26,-174.66 82.26,-166.21"/>
<polygon fill="black" stroke="black" points="85.76,-166.34 82.26,-156.34 78.76,-166.34 85.76,-166.34"/>
</g>
<!-- Accumulator&#45;&gt;Accumulator -->
<g id="edge2" class="edge">
<title>Accumulator&#45;&gt;Accumulator</title>
<path fill="none" stroke="black" d="M130.98,-143.02C141.3,-142.35 148.76,-140.12 148.76,-136.35 148.76,-134.18 146.27,-132.51 142.17,-131.37"/>
<polygon fill="black" stroke="black" points="142.88,-127.94 132.47,-129.91 141.84,-134.86 142.88,-127.94"/>
<text xml:space="preserve" text-anchor="middle" x="157.76" y="-132.48" font-family="sans-serif" font-size="10.00">loop</text>
</g>
<!-- ResultPrinter -->
<g id="node3" class="node">
<title>ResultPrinter</title>
<polygon fill="none" stroke="black" points="164.52,-29.8 123.39,-59.6 41.13,-59.6 0,-29.8 41.13,0 123.39,0 164.52,-29.8"/>
<text xml:space="preserve" text-anchor="middle" x="82.26" y="-32.65" font-family="sans-serif" font-size="12.00">[Out] ResultPrinter</text>
<text xml:space="preserve" text-anchor="middle" x="82.26" y="-16.9" font-family="sans-serif" font-size="12.00">(Output)</text>
</g>
<!-- Accumulator&#45;&gt;ResultPrinter -->
<g id="edge3" class="edge">
<title>Accumulator&#45;&gt;ResultPrinter</title>
<path fill="none" stroke="black" d="M82.26,-117.62C82.26,-104.87 82.26,-87.15 82.26,-71.05"/>
<polygon fill="black" stroke="black" points="85.76,-71.21 82.26,-61.21 78.76,-71.21 85.76,-71.21"/>
<text xml:space="preserve" text-anchor="middle" x="105.51" y="-90.6" font-family="sans-serif" font-size="10.00">exit</text>
<text xml:space="preserve" text-anchor="middle" x="105.51" y="-79.35" font-family="sans-serif" font-size="10.00">(sum &gt;= 10)</text>
</g>
</g>
</svg>
