<?xml version="1.0" encoding="UTF-8" standalone="no"?>
<!DOCTYPE svg PUBLIC "-//W3C//DTD SVG 1.1//EN"
 "http://www.w3.org/Graphics/SVG/1.1/DTD/svg11.dtd">
<!-- Generated by graphviz version 14.1.2 (20260124.0452)
 -->
<!-- Title: multi_graph_runtime Pages: 1 -->
<svg width="414pt" height="291pt"
 viewBox="0.00 0.00 414.00 291.00" xmlns="http://www.w3.org/2000/svg" xmlns:xlink="http://www.w3.org/1999/xlink">
<g id="graph0" class="graph" transform="scale(1 1) rotate(0) translate(4 286.71)">
<title>multi_graph_runtime</title>
<polygon fill="white" stroke="none" points="-4,4 -4,-286.71 410,-286.71 410,4 -4,4"/>
<g id="clust1" class="cluster">
<title>cluster_health</title>
<polygon fill="none" stroke="gray" stroke-dasharray="5,2" points="8,-103.6 8,-274.71 208,-274.71 208,-103.6 8,-103.6"/>
<text xml:space="preserve" text-anchor="middle" x="108" y="-257.41" font-family="sans-serif" font-size="14.00">Graph: health_check</text>
</g>
<g id="clust2" class="cluster">
<title>cluster_task</title>
<polygon fill="none" stroke="gray" stroke-dasharray="5,2" points="216,-8 216,-274.71 398,-274.71 398,-8 216,-8"/>
<text xml:space="preserve" text-anchor="middle" x="307" y="-257.41" font-family="sans-serif" font-size="14.00">Graph: task_processing</text>
</g>
<!-- HealthChecker -->
<g id="node1" class="node">
<title>HealthChecker</title>
<path fill="none" stroke="black" d="M151.62,-243.71C151.62,-243.71 64.38,-243.71 64.38,-243.71 58.38,-243.71 52.38,-237.71 52.38,-231.71 52.38,-231.71 52.38,-219.21 52.38,-219.21 52.38,-213.21 58.38,-207.21 64.38,-207.21 64.38,-207.21 151.62,-207.21 151.62,-207.21 157.62,-207.21 163.62,-213.21 163.62,-219.21 163.62,-219.21 163.62,-231.71 163.62,-231.71 163.62,-237.71 157.62,-243.71 151.62,-243.71"/>
<text xml:space="preserve" text-anchor="middle" x="108" y="-228.31" font-family="sans-serif" font-size="12.00">[In] HealthChecker</text>
<text xml:space="preserve" text-anchor="middle" x="108" y="-212.56" font-family="sans-serif" font-size="12.00">(Input)</text>
</g>
<!-- HealthReporter -->
<g id="node2" class="node">
<title>HealthReporter</title>
<polygon fill="none" stroke="black" points="200.06,-141.41 154.03,-171.21 61.97,-171.21 15.94,-141.41 61.97,-111.6 154.03,-111.6 200.06,-141.41"/>
<text xml:space="preserve" text-anchor="middle" x="108" y="-144.26" font-family="sans-serif" font-size="12.00">[Out] HealthReporter</text>
<text xml:space="preserve" text-anchor="middle" x="108" y="-128.51" font-family="sans-serif" font-size="12.00">(Output)</text>
</g>
<!-- HealthChecker&#45;&gt;HealthReporter -->
<g id="edge1" class="edge">
<title>HealthChecker&#45;&gt;HealthReporter</title>
<path fill="none" stroke="black" d="M108,-207.06C108,-199.94 108,-191.39 108,-182.87"/>
<polygon fill="black" stroke="black" points="111.5,-182.92 108,-172.92 104.5,-182.92 111.5,-182.92"/>
</g>
<!-- TaskPoller -->
<g id="node3" class="node">
<title>TaskPoller</title>
<path fill="none" stroke="black" d="M338.62,-243.71C338.62,-243.71 275.38,-243.71 275.38,-243.71 269.38,-243.71 263.38,-237.71 263.38,-231.71 263.38,-231.71 263.38,-219.21 263.38,-219.21 263.38,-213.21 269.38,-207.21 275.38,-207.21 275.38,-207.21 338.62,-207.21 338.62,-207.21 344.62,-207.21 350.62,-213.21 350.62,-219.21 350.62,-219.21 350.62,-231.71 350.62,-231.71 350.62,-237.71 344.62,-243.71 338.62,-243.71"/>
<text xml:space="preserve" text-anchor="middle" x="307" y="-228.31" font-family="sans-serif" font-size="12.00">[In] TaskPoller</text>
<text xml:space="preserve" text-anchor="middle" x="307" y="-212.56" font-family="sans-serif" font-size="12.00">(Input)</text>
</g>
<!-- TaskExecutor -->
<g id="node4" class="node">
<title>TaskExecutor</title>
<polygon fill="none" stroke="black" points="358.5,-159.66 255.5,-159.66 255.5,-123.16 358.5,-123.16 358.5,-159.66"/>
<text xml:space="preserve" text-anchor="middle" x="307" y="-144.26" font-family="sans-serif" font-size="12.00">[Hidden] TaskExecutor</text>
<text xml:space="preserve" text-anchor="middle" x="307" y="-128.51" font-family="sans-serif" font-size="12.00">(Hidden)</text>
</g>
<!-- TaskPoller&#45;&gt;TaskExecutor -->
<g id="edge2" class="edge">
<title>TaskPoller&#45;&gt;TaskExecutor</title>
<path fill="none" stroke="black" d="M307,-207.06C307,-196.68 307,-183.26 307,-171.33"/>
<polygon fill="black" stroke="black" points="310.5,-171.58 307,-161.58 303.5,-171.58 310.5,-171.58"/>
</g>
<!-- TaskReporter -->
<g id="node5" class="node">
<title>TaskReporter</title>
<polygon fill="none" stroke="black" points="390.49,-45.8 348.74,-75.6 265.26,-75.6 223.51,-45.8 265.26,-16 348.74,-16 390.49,-45.8"/>
<text xml:space="preserve" text-anchor="middle" x="307" y="-48.65" font-family="sans-serif" font-size="12.00">[Out] TaskReporter</text>
<text xml:space="preserve" text-anchor="middle" x="307" y="-32.9" font-family="sans-serif" font-size="12.00">(Output)</text>
</g>
<!-- TaskExecutor&#45;&gt;TaskReporter -->
<g id="edge3" class="edge">
<title>TaskExecutor&#45;&gt;TaskReporter</title>
<path fill="none" stroke="black" d="M307,-122.8C307,-112.66 307,-99.48 307,-86.95"/>
<polygon fill="black" stroke="black" points="310.5,-87.25 307,-77.25 303.5,-87.25 310.5,-87.25"/>
</g>
</g>
</svg>
