<?xml version="1.0" encoding="UTF-8" standalone="no"?>
<!DOCTYPE svg PUBLIC "-//W3C//DTD SVG 1.1//EN"
 "http://www.w3.org/Graphics/SVG/1.1/DTD/svg11.dtd">
<!-- Generated by graphviz version 14.1.2 (20260124.0452)
 -->
<!-- Title: multi_transform Pages: 1 -->
<svg width="135pt" height="358pt"
 viewBox="0.00 0.00 135.00 358.00" xmlns="http://www.w3.org/2000/svg" xmlns:xlink="http://www.w3.org/1999/xlink">
<g id="graph0" class="graph" transform="scale(1 1) rotate(0) translate(4 353.6)">
<title>multi_transform</title>
<polygon fill="white" stroke="none" points="-4,4 -4,-353.6 130.56,-353.6 130.56,4 -4,4"/>
<!-- DataSource -->
<g id="node1" class="node">
<title>DataSource</title>
<path fill="none" stroke="black" d="M98.65,-349.6C98.65,-349.6 27.9,-349.6 27.9,-349.6 21.9,-349.6 15.9,-343.6 15.9,-337.6 15.9,-337.6 15.9,-325.1 15.9,-325.1 15.9,-319.1 21.9,-313.1 27.9,-313.1 27.9,-313.1 98.65,-313.1 98.65,-313.1 104.65,-313.1 110.65,-319.1 110.65,-325.1 110.65,-325.1 110.65,-337.6 110.65,-337.6 110.65,-343.6 104.65,-349.6 98.65,-349.6"/>
<text xml:space="preserve" text-anchor="middle" x="63.28" y="-334.2" font-family="sans-serif" font-size="12.00">[In] DataSource</text>
<text xml:space="preserve" text-anchor="middle" x="63.28" y="-318.45" font-family="sans-serif" font-size="12.00">(Input)</text>
</g>
<!-- Normalizer -->
<g id="node2" class="node">
<title>Normalizer</title>
<polygon fill="none" stroke="black" points="108.03,-277.1 18.53,-277.1 18.53,-240.6 108.03,-240.6 108.03,-277.1"/>
<text xml:space="preserve" text-anchor="middle" x="63.28" y="-261.7" font-family="sans-serif" font-size="12.00">[Hidden] Normalizer</text>
<text xml:space="preserve" text-anchor="middle" x="63.28" y="-245.95" font-family="sans-serif" font-size="12.00">(Hidden)</text>
</g>
<!-- DataSource&#45;&gt;Normalizer -->
<g id="edge1" class="edge">
<title>DataSource&#45;&gt;Normalizer</title>
<path fill="none" stroke="black" d="M63.28,-312.93C63.28,-305.69 63.28,-297.1 63.28,-288.96"/>
<polygon fill="black" stroke="black" points="66.78,-289.08 63.28,-279.08 59.78,-289.08 66.78,-289.08"/>
</g>
<!-- Enricher -->
<g id="node3" class="node">
<title>Enricher</title>
<polygon fill="none" stroke="black" points="101.28,-204.6 25.28,-204.6 25.28,-168.1 101.28,-168.1 101.28,-204.6"/>
<text xml:space="preserve" text-anchor="middle" x="63.28" y="-189.2" font-family="sans-serif" font-size="12.00">[Hidden] Enricher</text>
<text xml:space="preserve" text-anchor="middle" x="63.28" y="-173.45" font-family="sans-serif" font-size="12.00">(Hidden)</text>
</g>
<!-- Normalizer&#45;&gt;Enricher -->
<g id="edge2" class="edge">
<title>Normalizer&#45;&gt;Enricher</title>
<path fill="none" stroke="black" d="M63.28,-240.43C63.28,-233.19 63.28,-224.6 63.28,-216.46"/>
<polygon fill="black" stroke="black" points="66.78,-216.58 63.28,-206.58 59.78,-216.58 66.78,-216.58"/>
</g>
<!-- Scorer -->
<g id="node4" class="node">
<title>Scorer</title>
<polygon fill="none" stroke="black" points="96.4,-132.1 30.15,-132.1 30.15,-95.6 96.4,-95.6 96.4,-132.1"/>
<text xml:space="preserve" text-anchor="middle" x="63.28" y="-116.7" font-family="sans-serif" font-size="12.00">[Hidden] Scorer</text>
<text xml:space="preserve" text-anchor="middle" x="63.28" y="-100.95" font-family="sans-serif" font-size="12.00">(Hidden)</text>
</g>
<!-- Enricher&#45;&gt;Scorer -->
<g id="edge3" class="edge">
<title>Enricher&#45;&gt;Scorer</title>
<path fill="none" stroke="black" d="M63.28,-167.93C63.28,-160.69 63.28,-152.1 63.28,-143.96"/>
<polygon fill="black" stroke="black" points="66.78,-144.08 63.28,-134.08 59.78,-144.08 66.78,-144.08"/>
</g>
<!-- Reporter -->
<g id="node5" class="node">
<title>Reporter</title>
<polygon fill="none" stroke="black" points="126.56,-29.8 94.92,-59.6 31.64,-59.6 0,-29.8 31.64,0 94.92,0 126.56,-29.8"/>
<text xml:space="preserve" text-anchor="middle" x="63.28" y="-32.65" font-family="sans-serif" font-size="12.00">[Out] Reporter</text>
<text xml:space="preserve" text-anchor="middle" x="63.28" y="-16.9" font-family="sans-serif" font-size="12.00">(Output)</text>
</g>
<!-- Scorer&#45;&gt;Reporter -->
<g id="edge4" class="edge">
<title>Scorer&#45;&gt;Reporter</title>
<path fill="none" stroke="black" d="M63.28,-95.45C63.28,-88.34 63.28,-79.78 63.28,-71.26"/>
<polygon fill="black" stroke="black" points="66.78,-71.32 63.28,-61.32 59.78,-71.32 66.78,-71.32"/>
</g>
</g>
</svg>
